<?xml version="1.0" standalone="no"?>
<!DOCTYPE svg PUBLIC "-//W3C//DTD SVG 20010904//EN"
 "http://www.w3.org/TR/2001/REC-SVG-20010904/DTD/svg10.dtd">
<svg version="1.0" xmlns="http://www.w3.org/2000/svg"
 width="1024.000000pt" height="1024.000000pt" viewBox="0 0 1024.000000 1024.000000"
 preserveAspectRatio="xMidYMid meet">
<metadata>
Created by potrace 1.16, written by Peter Selinger 2001-2019
</metadata>
<g transform="translate(0.000000,1024.000000) scale(0.100000,-0.100000)"
fill="#000000" stroke="none">
<path d="M5051 8233 c-8 -3 -25 -18 -38 -32 -20 -23 -23 -33 -18 -81 7 -77 9
-90 14 -85 2 3 13 -3 24 -12 14 -13 35 -18 74 -17 49 0 59 4 84 32 58 65 55
132 -7 181 -26 21 -98 28 -133 14z"/>
<path d="M5585 8173 c-26 -7 -56 -33 -49 -44 3 -5 0 -9 -6 -9 -6 0 -8 -4 -5
-10 3 -5 2 -10 -3 -10 -9 0 -12 -12 -15 -70 -1 -26 4 -41 23 -57 14 -13 29
-23 33 -23 5 0 6 -4 3 -8 -3 -5 12 -8 32 -6 20 1 47 2 60 3 13 1 36 14 52 30
16 16 32 26 36 22 4 -3 4 0 0 7 -4 6 -4 18 0 24 16 26 2 80 -28 110 -44 43
-79 54 -133 41z"/>
<path d="M4453 7439 c-39 -11 -79 -57 -94 -109 -10 -34 -9 -44 12 -87 33 -66
85 -96 154 -89 37 4 55 12 75 33 l25 27 -25 -20 c-28 -24 -65 -35 -86 -27 -18
7 -28 64 -19 109 4 24 22 51 52 82 l46 46 30 -35 c28 -32 29 -32 12 -4 -26 42
-37 51 -80 69 -42 18 -55 18 -102 5z"/>
<path d="M4012 7194 c-12 -8 -22 -12 -22 -8 0 19 -41 -33 -59 -76 -17 -40 -20
-57 -12 -91 14 -64 68 -111 140 -124 29 -5 45 9 20 17 -17 6 -23 91 -9 132 6
20 31 53 57 76 45 39 47 40 67 23 18 -16 18 -15 -2 8 -12 14 -19 29 -15 34 5
4 2 5 -5 1 -7 -4 -9 -12 -6 -18 4 -7 2 -8 -4 -4 -6 4 -8 14 -5 23 5 12 2 15
-10 10 -9 -3 -19 -2 -22 3 -10 16 -88 11 -113 -6z"/>
<path d="M3200 7087 c0 -5 -4 -6 -9 -2 -6 3 -8 -3 -6 -13 2 -10 -1 -25 -7 -33
-8 -11 -9 -11 -4 3 3 10 2 20 -3 22 -7 5 -11 -8 -12 -46 0 -10 -4 -18 -10 -18
-5 0 -9 -12 -9 -27 0 -23 2 -25 11 -13 8 12 9 9 5 -11 -4 -18 0 -33 12 -46 9
-10 14 -14 10 -9 -15 19 -8 27 8 11 14 -13 14 -18 2 -32 -9 -12 -9 -15 0 -9 6
4 12 3 12 -2 0 -5 14 -9 30 -10 17 0 39 -4 50 -7 12 -4 20 -2 20 5 0 7 7 10
15 6 8 -3 15 -1 15 4 0 5 7 7 15 4 9 -4 15 0 15 8 0 8 7 30 16 47 23 46 13
106 -23 143 -25 25 -38 29 -91 31 -34 1 -62 -2 -62 -6z"/>
<path d="M5826 6748 c-14 -20 -16 -106 -16 -735 0 -614 2 -713 14 -713 8 0 18
5 21 11 4 5 12 8 18 6 7 -2 17 3 23 11 9 13 14 12 40 -4 16 -10 31 -21 34 -24
3 -3 30 -24 60 -45 53 -39 98 -84 180 -182 31 -37 49 -78 37 -85 -8 -5 -8 -8
-1 -8 6 0 19 9 29 20 27 29 32 242 28 1060 -3 673 -3 675 -24 693 -19 15 -46
17 -225 17 -198 0 -203 0 -218 -22z"/>
<path d="M5209 6427 c-9 -7 -20 -21 -25 -32 -5 -12 -7 -221 -4 -505 3 -267 6
-480 8 -474 6 32 261 60 375 41 l47 -8 0 -176 c0 -97 2 -174 5 -171 10 10 6
1275 -4 1301 -5 13 -17 27 -26 31 -32 12 -359 6 -376 -7z"/>
<path d="M2155 6230 c-50 -11 -82 -38 -104 -90 -20 -46 -20 -52 -6 -86 8 -20
12 -40 9 -45 -3 -5 0 -8 8 -7 7 2 12 -3 11 -9 -2 -7 3 -12 10 -10 6 1 11 -3
10 -9 -2 -13 3 -14 85 -19 54 -3 68 0 89 18 116 101 35 288 -112 257z"/>
<path d="M7919 6224 c-14 -9 -36 -32 -48 -50 -20 -29 -23 -43 -19 -94 3 -42
10 -66 23 -78 18 -16 18 -16 6 1 -18 22 -1 43 54 68 56 26 95 23 159 -10 l56
-30 0 60 c0 66 -16 97 -68 131 -35 23 -127 24 -163 2z"/>
<path d="M2945 6218 c-22 -4 -44 -9 -50 -10 -6 -1 -10 -60 -11 -152 0 -83 3
-140 6 -126 4 17 9 -3 14 -58 4 -46 11 -80 17 -77 12 8 12 -41 -1 -65 -15 -28
-2 -80 19 -73 13 5 14 3 4 -8 -7 -7 -13 -20 -13 -28 0 -12 2 -13 8 -3 6 8 13
-8 21 -45 7 -32 18 -64 23 -70 7 -9 7 -13 -1 -13 -6 0 -11 -7 -11 -16 0 -8 4
-13 9 -9 5 3 15 -12 21 -32 7 -21 18 -44 24 -52 8 -11 8 -13 -1 -7 -22 12 -15
-32 7 -54 28 -28 44 -70 27 -70 -7 -1 -5 -6 5 -14 13 -9 14 -16 6 -24 -8 -8
-6 -15 6 -27 16 -16 23 -8 9 11 -5 5 0 1 9 -9 10 -11 15 -23 12 -28 -3 -5 0
-9 6 -9 6 0 8 -4 5 -10 -3 -5 -1 -10 5 -10 6 0 8 -5 5 -10 -4 -6 -11 -8 -16
-5 -5 3 -6 -1 -3 -10 4 -11 10 -12 18 -6 9 7 17 2 29 -18 9 -15 14 -31 10 -35
-3 -3 2 -6 13 -6 16 0 17 -2 4 -10 -11 -7 -11 -10 -2 -10 7 0 11 -4 8 -9 -3
-5 1 -11 9 -15 8 -3 15 -12 15 -21 0 -8 4 -15 10 -15 5 0 6 -7 3 -17 -4 -10
-2 -14 4 -10 6 4 18 -4 27 -18 9 -14 14 -25 12 -25 -3 0 6 -12 19 -26 13 -14
23 -30 22 -34 -1 -5 7 -16 18 -25 11 -9 13 -13 5 -10 -8 4 -3 -3 11 -16 15
-13 27 -27 28 -31 1 -11 28 -41 73 -85 21 -20 35 -40 31 -46 -3 -6 -1 -7 5 -3
7 4 12 4 12 -1 0 -4 23 -33 52 -63 28 -30 45 -46 38 -35 -7 11 3 4 21 -16 19
-20 42 -39 52 -43 11 -3 15 -11 11 -17 -4 -7 -3 -9 3 -6 5 3 27 -9 48 -28 21
-19 41 -35 45 -35 4 0 19 -11 34 -25 14 -13 26 -22 26 -19 0 3 15 -6 33 -20
19 -14 37 -23 40 -19 4 3 7 1 7 -5 0 -7 7 -12 15 -12 8 0 15 -5 15 -11 0 -5 5
-7 10 -4 6 3 10 -1 10 -10 0 -11 5 -15 15 -11 8 3 15 2 15 -2 0 -9 68 -46 85
-47 6 0 18 -8 28 -18 10 -10 25 -16 33 -13 15 6 74 -19 74 -30 0 -3 -5 -2 -12
2 -7 4 -8 3 -4 -5 4 -7 13 -10 19 -8 7 2 18 -3 26 -10 7 -8 19 -12 27 -9 7 3
15 0 17 -7 2 -7 8 -8 13 -4 11 11 -17 28 -35 22 -11 -5 -12 -3 -1 10 7 8 15
13 19 11 3 -2 6 11 7 30 0 19 -3 34 -7 34 -5 0 -5 55 0 68 1 1 17 -5 38 -13
20 -8 38 -13 40 -11 3 2 -5 7 -16 11 -12 3 -19 11 -15 16 3 5 10 6 16 3 7 -4
8 -2 4 5 -14 21 2 61 22 56 9 -3 -5 6 -33 19 -27 14 -58 22 -67 20 -10 -3 -21
3 -28 16 -7 13 -18 19 -26 16 -8 -3 -14 -1 -14 5 0 6 -4 7 -10 4 -5 -3 -10 -1
-10 5 0 6 -4 8 -10 5 -5 -3 -10 -1 -10 6 0 7 -3 9 -7 6 -3 -4 -13 2 -21 14 -8
11 -20 18 -28 15 -8 -3 -14 -2 -14 2 0 4 -9 13 -21 20 -17 11 -20 11 -14 0 4
-7 -3 -2 -15 12 -12 14 -19 18 -15 10 4 -8 -3 -3 -16 12 -13 14 -58 52 -99 83
-91 68 -260 224 -260 239 0 6 -8 16 -19 23 -21 13 -148 179 -179 235 -11 20
-18 39 -15 42 4 3 1 6 -5 6 -7 0 -12 7 -12 15 0 8 -5 15 -11 15 -5 0 -7 5 -4
10 3 6 1 10 -5 10 -6 0 -8 5 -5 10 3 6 2 10 -3 10 -13 0 -93 184 -130 300 -54
168 -85 332 -97 500 -7 97 -16 205 -18 206 -1 1 -19 4 -40 8 -27 5 -37 4 -32
-4 5 -7 -2 -9 -22 -4 -52 11 -58 11 -98 2z"/>
<path d="M4569 5957 c-20 -24 -20 -30 -20 -653 1 -346 4 -650 7 -676 7 -51 15
-62 54 -71 14 -3 36 -8 50 -11 l25 -7 -25 12 c-14 6 -38 14 -55 18 -38 9 -44
39 -43 221 0 77 4 118 7 95 l7 -40 8 40 c8 41 50 126 76 155 8 9 22 27 30 40
44 66 172 186 243 227 11 6 24 17 28 25 5 8 10 -27 11 -87 1 -55 5 76 8 290 5
348 4 393 -11 415 -16 25 -16 25 -197 28 -181 2 -182 2 -203 -21z"/>
<path d="M2764 5575 c-4 -8 -10 -13 -14 -10 -5 3 -11 1 -15 -5 -4 -6 -10 -8
-14 -6 -8 6 -110 -24 -153 -44 -27 -13 -46 -52 -28 -58 6 -2 10 -11 10 -21 0
-9 7 -27 16 -39 8 -12 12 -27 9 -32 -3 -6 -1 -10 4 -10 6 0 11 -5 11 -11 0 -5
-6 -7 -12 -4 -7 4 -5 0 4 -8 10 -8 15 -16 13 -19 -3 -3 2 -24 10 -48 8 -23 12
-46 9 -51 -3 -5 -1 -9 5 -9 6 0 8 -8 4 -17 -3 -10 -2 -15 2 -10 12 11 47 -67
46 -105 0 -10 4 -18 9 -18 5 0 6 -7 3 -17 -4 -10 -2 -14 5 -9 10 6 29 -29 24
-46 -1 -5 6 -8 15 -9 11 0 13 -3 6 -6 -7 -2 -13 -9 -13 -14 0 -4 7 -5 17 -2
11 4 14 3 9 -5 -4 -7 -2 -12 4 -12 6 0 9 -4 5 -9 -3 -5 -1 -12 4 -16 6 -3 8
-12 4 -20 -3 -8 -1 -15 4 -15 5 0 17 -15 28 -32 10 -18 22 -36 27 -39 5 -3 10
-16 11 -27 1 -12 8 -22 15 -22 8 0 12 -6 9 -14 -3 -8 1 -17 10 -20 9 -4 13 -9
10 -12 -3 -3 5 -16 19 -29 14 -13 23 -29 22 -36 -2 -8 3 -13 10 -11 8 1 11 -1
8 -6 -3 -5 8 -23 24 -40 16 -18 26 -32 22 -32 -4 -1 3 -9 16 -20 13 -10 23
-21 22 -25 0 -3 4 -11 10 -18 42 -51 61 -77 58 -77 -7 0 88 -102 162 -173 41
-40 94 -91 117 -113 24 -23 43 -39 43 -37 0 6 123 -88 138 -105 6 -9 12 -12
12 -8 0 4 15 -4 33 -18 19 -15 39 -26 45 -26 7 0 12 -4 12 -9 0 -5 9 -13 20
-16 11 -4 18 -10 16 -14 -3 -4 5 -8 16 -8 11 -1 28 -8 37 -16 9 -8 40 -27 69
-42 28 -16 52 -32 52 -37 0 -4 3 -7 8 -6 10 3 92 -34 92 -42 0 -4 6 -7 13 -7
23 0 127 -46 127 -57 0 -5 3 -7 6 -3 4 3 28 -2 55 -13 27 -10 49 -15 49 -12 0
3 6 -2 13 -12 12 -16 13 -16 13 3 0 12 -7 21 -16 22 -10 0 -11 2 -2 6 6 2 12
9 12 14 0 6 -4 7 -10 4 -11 -7 -14 8 -3 19 11 10 12 36 2 36 -5 0 -9 5 -9 10
0 6 7 10 16 10 12 0 14 5 9 18 -5 9 -8 41 -9 69 -1 29 -5 53 -9 53 -5 0 -6 4
-3 9 6 8 -72 48 -86 43 -5 -1 -8 3 -8 10 0 6 -3 8 -6 5 -4 -4 -19 2 -33 12
-33 23 -124 65 -133 63 -5 -1 -8 3 -8 10 0 6 -3 9 -6 5 -3 -3 -13 1 -22 9 -10
8 -47 33 -83 56 -136 88 -177 117 -217 155 -23 22 -42 38 -42 36 0 -3 -24 16
-52 43 -29 26 -52 51 -51 55 2 5 -2 8 -9 6 -7 -1 -12 5 -13 13 0 8 -5 15 -12
15 -15 0 -28 13 -28 28 0 7 -5 12 -10 12 -12 0 -125 112 -125 124 0 4 -9 16
-20 26 -11 10 -17 21 -15 26 3 4 -3 10 -14 14 -10 3 -22 16 -25 28 -3 12 -20
38 -38 58 -18 20 -34 43 -36 50 -2 8 -10 21 -18 30 -8 9 -11 19 -7 22 3 4 -1
7 -9 7 -13 0 -26 24 -28 53 0 4 -8 15 -17 25 -27 28 -48 63 -45 73 1 5 -4 9
-10 9 -9 0 -8 4 2 10 8 5 10 10 4 10 -6 0 -20 18 -33 40 -12 22 -20 40 -17 40
3 0 -5 19 -18 43 -13 23 -29 60 -36 82 -7 22 -16 45 -20 50 -4 6 -12 30 -18
55 -6 25 -19 63 -28 85 -10 22 -18 42 -19 45 0 3 -4 22 -8 43 -5 20 -12 37
-18 37 -6 0 -7 5 -4 10 3 6 4 10 0 10 -3 0 -8 -7 -11 -15z"/>
<path d="M3895 5500 c-20 -23 -21 -43 -16 -375 l1 -120 72 -60 c40 -33 84 -70
98 -82 126 -110 235 -186 283 -198 l27 -7 -2 428 -3 429 -221 3 c-213 2 -221
2 -239 -18z"/>
<path d="M7853 3211 c-134 -34 -262 -204 -378 -506 -44 -114 -95 -285 -116
-391 -11 -53 -15 -60 -33 -57 -15 3 -44 -13 -91 -51 -130 -104 -235 -136 -285
-86 -46 46 -10 190 63 256 33 30 43 35 45 22 2 -9 -2 -26 -7 -37 -16 -29 -13
-77 5 -95 22 -23 86 -20 118 5 60 47 91 163 63 231 -25 59 -67 80 -157 76
-137 -6 -249 -87 -322 -234 -23 -46 -45 -84 -49 -84 -4 0 -31 -21 -61 -46 -95
-82 -227 -136 -293 -120 -37 9 -31 21 18 36 154 46 253 151 264 278 5 69 -15
115 -66 149 -46 31 -147 32 -226 2 -111 -41 -214 -167 -250 -304 -54 -209 48
-345 259 -345 103 0 211 39 318 116 44 31 47 32 53 14 11 -33 55 -80 99 -103
33 -18 58 -22 131 -22 111 0 184 22 275 83 36 24 67 45 71 47 3 2 5 -21 5 -51
-1 -44 3 -59 18 -70 31 -22 94 -17 142 11 36 21 49 39 92 127 47 96 149 255
158 246 2 -3 -12 -49 -31 -104 -70 -200 -37 -294 104 -294 66 0 135 27 213 83
76 55 123 103 137 140 16 41 13 93 -5 111 -30 30 -61 19 -135 -49 -39 -36 -84
-72 -100 -81 -28 -14 -29 -14 -29 10 0 13 23 84 51 157 86 227 79 299 -31 299
-28 0 -67 -7 -87 -15 l-36 -15 27 32 c204 249 273 424 220 557 -25 62 -87 90
-161 72z m-22 -280 c-13 -41 -44 -104 -80 -159 -62 -95 -89 -123 -76 -81 29
95 118 282 154 323 14 16 16 17 19 2 2 -10 -6 -48 -17 -85z"/>
<path d="M2198 3074 c-193 -46 -325 -187 -336 -358 -4 -59 0 -81 18 -124 37
-85 106 -135 303 -217 92 -39 140 -81 139 -124 -2 -88 -83 -143 -221 -149 -93
-5 -156 8 -192 37 l-23 19 18 77 c18 76 18 78 -1 103 -29 38 -83 49 -130 25
-65 -32 -103 -109 -103 -211 0 -163 121 -242 370 -242 193 0 326 46 420 146
65 69 91 129 97 225 9 139 -34 190 -247 292 -172 82 -210 113 -210 172 0 94
92 155 232 155 77 0 131 -18 148 -50 9 -16 8 -33 -4 -74 -22 -75 -20 -103 9
-131 18 -19 35 -25 69 -25 66 0 109 41 136 127 51 164 -4 275 -159 323 -76 24
-244 26 -333 4z"/>
<path d="M5755 3079 c-322 -38 -486 -162 -487 -368 -1 -66 9 -98 40 -133 23
-27 89 -23 135 7 43 30 53 60 37 109 -24 73 18 133 114 161 55 16 186 32 186
22 0 -4 -26 -77 -59 -164 -88 -238 -221 -647 -228 -701 -4 -37 -1 -52 13 -70
35 -42 134 -42 187 1 23 18 35 47 66 157 75 258 261 785 277 785 5 0 95 -4
201 -8 212 -9 238 -4 261 48 32 71 3 124 -78 145 -58 15 -557 22 -665 9z"/>
<path d="M4271 2858 c-57 -29 -82 -64 -88 -121 -5 -41 -2 -49 25 -77 28 -27
37 -30 94 -30 105 0 168 57 168 151 0 62 -30 91 -102 96 -41 3 -63 -1 -97 -19z"/>
<path d="M3027 2580 c-179 -31 -327 -222 -327 -425 0 -121 57 -210 152 -236
59 -16 154 -6 207 21 61 30 138 105 172 166 29 50 31 51 83 58 30 3 61 8 69
12 11 4 15 -8 20 -56 11 -126 89 -198 225 -208 111 -8 230 32 335 112 38 29
47 32 47 18 0 -9 9 -35 19 -58 49 -108 217 -95 354 27 l41 36 22 -48 c28 -59
79 -89 151 -89 52 0 125 29 161 63 22 20 24 21 33 4 62 -111 212 -81 371 74
45 45 57 64 66 104 13 63 -1 99 -40 103 -21 3 -43 -11 -100 -61 -40 -35 -85
-71 -100 -81 -28 -18 -28 -18 -28 5 0 13 25 96 55 183 30 88 55 169 55 182 0
30 -35 54 -79 54 -24 0 -41 8 -58 26 -22 24 -28 26 -81 20 -133 -16 -289 -130
-360 -264 -23 -42 -39 -62 -52 -62 -10 0 -52 -31 -93 -69 -152 -140 -160 -119
-61 151 77 211 73 238 -34 238 -36 0 -57 -6 -77 -22 -30 -23 -78 -120 -114
-230 -19 -58 -26 -68 -46 -68 -14 0 -47 -20 -79 -49 -78 -68 -166 -113 -223
-114 -39 0 -50 4 -71 28 -21 25 -23 35 -17 79 11 88 68 187 115 199 24 6 24 9
5 -43 -20 -55 -19 -66 5 -90 46 -46 127 -14 167 67 21 44 25 63 21 114 -4 51
-9 65 -36 92 -32 31 -35 32 -120 32 -75 0 -94 -4 -139 -28 -54 -28 -158 -124
-168 -156 -4 -12 -24 -20 -75 -29 -99 -17 -96 -18 -103 33 -14 101 -74 167
-167 185 -29 5 -53 9 -54 9 0 -1 -22 -5 -49 -9z m1766 -299 c-32 -84 -57 -135
-79 -158 -104 -110 -82 91 22 207 35 39 94 83 101 77 1 -2 -19 -58 -44 -126z
m-1767 51 c0 -42 7 -70 22 -97 26 -43 23 -63 -19 -105 -20 -20 -41 -30 -60
-30 -78 0 -68 173 13 257 18 18 34 33 37 33 4 0 6 -26 7 -58z"/>
</g>
</svg>
